<?xml version="1.0" encoding="utf-8"?>
<!-- Generator: Adobe Illustrator 19.0.0, SVG Export Plug-In . SVG Version: 6.00 Build 0)  -->
<svg version="1.1" xmlns="http://www.w3.org/2000/svg" xmlns:xlink="http://www.w3.org/1999/xlink" x="0px" y="0px"
	 viewBox="0 0 32 32" enable-background="new 0 0 32 32" xml:space="preserve">
<g id="bg" display="none">
	<circle display="inline" fill="#3A8AAD" cx="16" cy="16" r="16"/>
</g>
<g id="kast">
	<g>
		<g>
			<path fill="#FFFFFF" d="M25,19.3v-8.6c0.6-0.3,1-1,1-1.7c0-1.1-0.9-2-2-2c-1,0-1.8,0.7-2,1.7l-4.8,1.8C16.9,10.2,16.5,10,16,10
				s-0.9,0.2-1.3,0.5L10,8.7C9.8,7.7,9,7,8,7C6.9,7,6,7.9,6,9c0,0.7,0.4,1.4,1,1.7v8.6c-0.6,0.3-1,1-1,1.7c0,1.1,0.9,2,2,2
				c0.5,0,0.9-0.2,1.3-0.5l4.8,1.8c0.2,0.9,1,1.7,2,1.7s1.8-0.7,2-1.7l4.8-1.8c0.3,0.3,0.8,0.5,1.3,0.5c1.1,0,2-0.9,2-2
				C26,20.3,25.6,19.6,25,19.3z M24,8c0.6,0,1,0.4,1,1c0,0.6-0.4,1-1,1s-1-0.4-1-1C23,8.4,23.4,8,24,8z M16,11c0.6,0,1,0.4,1,1
				c0,0.6-0.4,1-1,1s-1-0.4-1-1C15,11.4,15.4,11,16,11z M8,8c0.6,0,1,0.4,1,1c0,0.6-0.4,1-1,1S7,9.6,7,9C7,8.4,7.4,8,8,8z M8,22
				c-0.6,0-1-0.4-1-1c0-0.6,0.4-1,1-1s1,0.4,1,1C9,21.6,8.6,22,8,22z M10,20.7c-0.1-0.6-0.5-1.1-1-1.4v-8.6c0.1-0.1,0.2-0.1,0.3-0.2
				l4.8,1.8c0.1,0.6,0.5,1.1,1,1.4v8.6c-0.1,0.1-0.2,0.1-0.3,0.2L10,20.7z M16,25c-0.6,0-1-0.4-1-1c0-0.6,0.4-1,1-1s1,0.4,1,1
				C17,24.6,16.6,25,16,25z M22,20.7l-4.8,1.8c-0.1-0.1-0.2-0.1-0.3-0.2v-8.6c0.5-0.3,0.9-0.8,1-1.4l4.8-1.8
				c0.1,0.1,0.2,0.1,0.3,0.2v8.6C22.5,19.6,22.1,20.1,22,20.7z M24,22c-0.6,0-1-0.4-1-1c0-0.6,0.4-1,1-1s1,0.4,1,1
				C25,21.6,24.6,22,24,22z"/>
		</g>
	</g>
</g>
<g id="books" opacity="0.5">
</g>
</svg>
