<?xml version="1.0" encoding="utf-8"?>
<!-- Generator: Adobe Illustrator 18.1.1, SVG Export Plug-In . SVG Version: 6.00 Build 0)  -->
<svg version="1.1" id="Layer_1" xmlns="http://www.w3.org/2000/svg" xmlns:xlink="http://www.w3.org/1999/xlink" x="0px" y="0px"
	 width="32px" height="32px" viewBox="0 0 32 32" style="enable-background:new 0 0 32 32;" xml:space="preserve">
<g>
	<path style="fill:#A6A6A6;" d="M16,3c8.3,0,15,5.4,15,12s-6.7,12-15,12c-1.1,0-2.3-0.1-3.5-0.3l-0.4-0.1l-0.3,0.2
		c-2,1.2-4.7,1.9-7.9,2.2c0.9-1.3,1.6-2.7,2.2-4.1l0.3-0.7l-0.6-0.5c-1.5-1.1-2.6-2.4-3.4-3.9C1.4,18.3,1,16.7,1,15
		C1,8.4,7.7,3,16,3 M16,2C7.2,2,0,7.8,0,15c0,3.7,2,7.1,5.1,9.5C4.5,26,3.5,28,1.8,30c3.2,0,7.3-0.4,10.5-2.4
		c1.2,0.2,2.4,0.4,3.7,0.4c8.8,0,16-5.8,16-13S24.8,2,16,2L16,2z"/>
</g>
</svg>
