<svg xmlns="http://www.w3.org/2000/svg" xmlns:xlink="http://www.w3.org/1999/xlink" preserveAspectRatio="xMidYMid" width="512" height="512" viewBox="0 0 512 512">
  <defs>
    <style>
      .cls-1 {
        fill: #fff;
        fill-rule: evenodd;
      }
    </style>
  </defs>
  <path d="M427.197,157.262 C424.864,157.262 422.833,156.489 420.667,155.959 L376.439,308.626 L78.621,308.626 L34.394,155.959 C32.227,156.489 30.167,157.262 27.864,157.262 C12.469,157.262 -0.015,144.778 -0.015,129.398 C-0.015,113.990 12.469,101.505 27.864,101.505 C43.288,101.505 55.757,113.990 55.757,129.398 C55.757,135.369 53.485,140.595 50.287,145.141 L131.076,203.868 L148.227,55.126 C134.394,53.504 123.485,42.171 123.485,27.868 C123.485,12.489 135.954,-0.010 151.379,-0.010 C166.773,-0.010 179.289,12.489 179.289,27.868 C179.289,39.005 172.651,48.459 163.197,52.944 L227.530,188.823 L291.939,52.989 C282.470,48.535 275.773,39.051 275.773,27.868 C275.773,12.489 288.257,-0.010 303.682,-0.010 C319.076,-0.010 331.576,12.489 331.576,27.868 C331.576,42.186 320.651,53.550 306.758,55.172 L323.955,204.672 L404.864,145.277 C401.591,140.686 399.288,135.413 399.288,129.398 C399.288,113.990 411.773,101.505 427.197,101.505 C442.576,101.505 455.045,113.990 455.045,129.398 C455.045,144.778 442.576,157.262 427.197,157.262 ZM376.439,359.951 L78.621,359.951 L78.621,327.951 L376.439,327.951 L376.439,359.951 Z" transform="translate(28.48 76.03)" class="cls-1"/>
</svg>
